<mxfile host="app.diagrams.net" modified="2023-04-16T05:40:22.357Z" agent="Mozilla/5.0 (Windows NT 10.0; Win64; x64) AppleWebKit/537.36 (KHTML, like Gecko) Chrome/111.0.0.0 Safari/537.36" etag="z7sBzp6wjWfQfCYUeFJV" version="21.1.8" type="google">
  <diagram name="第 1 页" id="gVEgFQVonQ4QpbPUQHVy">
    <mxGraphModel grid="1" page="1" gridSize="10" guides="1" tooltips="1" connect="1" arrows="1" fold="1" pageScale="1" pageWidth="2339" pageHeight="3300" math="0" shadow="0">
      <root>
        <mxCell id="0" />
        <mxCell id="1" parent="0" />
        <mxCell id="EDYX8qCLXJ03ERaAKR4w-1" value="&lt;p style=&quot;margin:0px;margin-top:4px;text-align:center;&quot;&gt;&lt;b&gt;AttributeGetter&lt;/b&gt;&lt;/p&gt;&lt;hr size=&quot;1&quot;/&gt;&lt;p style=&quot;margin:0 0 0 4px;line-height:1.6;&quot;&gt;+ AttributeGetter(): &lt;/p&gt;&lt;hr size=&quot;1&quot;/&gt;&lt;p style=&quot;margin:0 0 0 4px;line-height:1.6;&quot;&gt; password: String&lt;br/&gt; userName: String&lt;br/&gt; domain: UserType&lt;br/&gt; userID: String&lt;/p&gt;" style="verticalAlign=top;align=left;overflow=fill;fontSize=14;fontFamily=Helvetica;html=1;rounded=0;shadow=0;comic=0;labelBackgroundColor=none;strokeWidth=1;fillColor=#dae8fc;strokeColor=#6c8ebf;" vertex="1" parent="1">
          <mxGeometry x="-106" y="-1150" width="150" height="173" as="geometry" />
        </mxCell>
        <mxCell id="EDYX8qCLXJ03ERaAKR4w-2" value="&lt;p style=&quot;margin:0px;margin-top:4px;text-align:center;&quot;&gt;&lt;b&gt;ChangeAccountPassword&lt;/b&gt;&lt;/p&gt;&lt;hr size=&quot;1&quot;/&gt;&lt;p style=&quot;margin:0 0 0 4px;line-height:1.6;&quot;&gt;+ ChangeAccountPassword(): &lt;/p&gt;&lt;hr size=&quot;1&quot;/&gt;&lt;p style=&quot;margin:0 0 0 4px;line-height:1.6;&quot;&gt;+ askToRetry(UserType, String): void&lt;br/&gt;+ changePassword(UserType, String): void&lt;/p&gt;" style="verticalAlign=top;align=left;overflow=fill;fontSize=14;fontFamily=Helvetica;html=1;rounded=0;shadow=0;comic=0;labelBackgroundColor=none;strokeWidth=1;fillColor=#dae8fc;strokeColor=#6c8ebf;" vertex="1" parent="1">
          <mxGeometry x="-121" y="-210" width="321" height="135" as="geometry" />
        </mxCell>
        <mxCell id="EDYX8qCLXJ03ERaAKR4w-3" value="&lt;p style=&quot;margin:0px;margin-top:4px;text-align:center;&quot;&gt;&lt;b&gt;ForgetUserID&lt;/b&gt;&lt;/p&gt;&lt;hr size=&quot;1&quot;/&gt;&lt;p style=&quot;margin:0 0 0 4px;line-height:1.6;&quot;&gt;+ ForgetUserID(): &lt;/p&gt;&lt;hr size=&quot;1&quot;/&gt;&lt;p style=&quot;margin:0 0 0 4px;line-height:1.6;&quot;&gt;+ forgotUserID(): void&lt;/p&gt;" style="verticalAlign=top;align=left;overflow=fill;fontSize=14;fontFamily=Helvetica;html=1;rounded=0;shadow=0;comic=0;labelBackgroundColor=none;strokeWidth=1;fillColor=#dae8fc;strokeColor=#6c8ebf;" vertex="1" parent="1">
          <mxGeometry x="-106" y="-1280" width="154" height="100" as="geometry" />
        </mxCell>
        <mxCell id="EDYX8qCLXJ03ERaAKR4w-4" value="&lt;p style=&quot;margin:0px;margin-top:4px;text-align:center;&quot;&gt;&lt;b&gt;LoginUI&lt;/b&gt;&lt;/p&gt;&lt;hr size=&quot;1&quot;/&gt;&lt;p style=&quot;margin:0 0 0 4px;line-height:1.6;&quot;&gt;+ LoginUI(): &lt;/p&gt;&lt;hr size=&quot;1&quot;/&gt;&lt;p style=&quot;margin:0 0 0 4px;line-height:1.6;&quot;&gt;+ login(): void&lt;/p&gt;" style="verticalAlign=top;align=left;overflow=fill;fontSize=14;fontFamily=Helvetica;html=1;rounded=0;shadow=0;comic=0;labelBackgroundColor=none;strokeWidth=1;fillColor=#dae8fc;strokeColor=#6c8ebf;" vertex="1" parent="1">
          <mxGeometry x="280" y="-1156" width="111" height="96" as="geometry" />
        </mxCell>
        <mxCell id="EDYX8qCLXJ03ERaAKR4w-5" value="&lt;p style=&quot;margin:0px;margin-top:4px;text-align:center;&quot;&gt;&lt;b&gt;Logout&lt;/b&gt;&lt;/p&gt;&lt;hr size=&quot;1&quot;/&gt;&lt;p style=&quot;margin:0 0 0 4px;line-height:1.6;&quot;&gt;+ Logout(): &lt;/p&gt;&lt;hr size=&quot;1&quot;/&gt;&lt;p style=&quot;margin:0 0 0 4px;line-height:1.6;&quot;&gt;+ logout(): void&lt;/p&gt;" style="verticalAlign=top;align=left;overflow=fill;fontSize=14;fontFamily=Helvetica;html=1;rounded=0;shadow=0;comic=0;labelBackgroundColor=none;strokeWidth=1;fillColor=#dae8fc;strokeColor=#6c8ebf;" vertex="1" parent="1">
          <mxGeometry x="250" y="-119" width="120" height="96" as="geometry" />
        </mxCell>
        <mxCell id="EDYX8qCLXJ03ERaAKR4w-6" value="&lt;p style=&quot;margin:0px;margin-top:4px;text-align:center;&quot;&gt;&lt;b&gt;ViewUserProfile&lt;/b&gt;&lt;/p&gt;&lt;hr size=&quot;1&quot;/&gt;&lt;p style=&quot;margin:0 0 0 4px;line-height:1.6;&quot;&gt;+ ViewUserProfile(): &lt;/p&gt;&lt;hr size=&quot;1&quot;/&gt;&lt;p style=&quot;margin:0 0 0 4px;line-height:1.6;&quot;&gt;+ viewUserProfile(User): void&lt;br/&gt;+ viewUserProfilePage(User): void&lt;/p&gt;" style="verticalAlign=top;align=left;overflow=fill;fontSize=14;fontFamily=Helvetica;html=1;rounded=0;shadow=0;comic=0;labelBackgroundColor=none;strokeWidth=1;fillColor=#dae8fc;strokeColor=#6c8ebf;" vertex="1" parent="1">
          <mxGeometry x="1090" y="-450" width="246" height="127" as="geometry" />
        </mxCell>
        <mxCell id="EDYX8qCLXJ03ERaAKR4w-7" value="&lt;p style=&quot;margin:0px;margin-top:4px;text-align:center;&quot;&gt;&lt;b&gt;CoordinatorMainPage&lt;/b&gt;&lt;/p&gt;&lt;hr size=&quot;1&quot;/&gt;&lt;p style=&quot;margin:0 0 0 4px;line-height:1.6;&quot;&gt;+ CoordinatorMainPage(): &lt;/p&gt;&lt;hr size=&quot;1&quot;/&gt;&lt;p style=&quot;margin:0 0 0 4px;line-height:1.6;&quot;&gt;+ viewPendingRequests(): void&lt;br/&gt;- viewAllRequests(): void&lt;br/&gt;+ coordinatorMainPage(User): void&lt;br/&gt;- acceptOrRejectRequest(): void&lt;/p&gt;" style="verticalAlign=top;align=left;overflow=fill;fontSize=14;fontFamily=Helvetica;html=1;rounded=0;shadow=0;comic=0;labelBackgroundColor=none;strokeWidth=1;fillColor=#dae8fc;strokeColor=#6c8ebf;" vertex="1" parent="1">
          <mxGeometry x="750" y="-840" width="230" height="173" as="geometry" />
        </mxCell>
        <mxCell id="EDYX8qCLXJ03ERaAKR4w-8" value="&lt;p style=&quot;margin:0px;margin-top:4px;text-align:center;&quot;&gt;&lt;b&gt;StudentMainPage&lt;/b&gt;&lt;/p&gt;&lt;hr size=&quot;1&quot;/&gt;&lt;p style=&quot;margin:0 0 0 4px;line-height:1.6;&quot;&gt;+ StudentMainPage(): &lt;/p&gt;&lt;hr size=&quot;1&quot;/&gt;&lt;p style=&quot;margin:0 0 0 4px;line-height:1.6;&quot;&gt;- registerProject(Student): void&lt;br/&gt;+ studentMainPage(User): void&lt;br/&gt;- viewMySupervisor(Student): void&lt;br/&gt;- viewHistoryAndStatusOfMyProject(Student): void&lt;br/&gt;- deregisterForProject(Student): void&lt;br/&gt;- changeTitleForProject(Student): void&lt;br/&gt;- viewHistoryAndStatusOfMyRequest(Student): void&lt;/p&gt;&lt;hr size=&quot;1&quot;/&gt;&lt;p style=&quot;margin:0 0 0 4px;line-height:1.6;&quot;&gt; projectID: String&lt;/p&gt;" style="verticalAlign=top;align=left;overflow=fill;fontSize=14;fontFamily=Helvetica;html=1;rounded=0;shadow=0;comic=0;labelBackgroundColor=none;strokeWidth=1;fillColor=#dae8fc;strokeColor=#6c8ebf;" vertex="1" parent="1">
          <mxGeometry x="-106" y="-840" width="336" height="286" as="geometry" />
        </mxCell>
        <mxCell id="EDYX8qCLXJ03ERaAKR4w-9" value="&lt;p style=&quot;margin:0px;margin-top:4px;text-align:center;&quot;&gt;&lt;b&gt;SupervisorMainPage&lt;/b&gt;&lt;/p&gt;&lt;hr size=&quot;1&quot;/&gt;&lt;p style=&quot;margin:0 0 0 4px;line-height:1.6;&quot;&gt;+ SupervisorMainPage(): &lt;/p&gt;&lt;hr size=&quot;1&quot;/&gt;&lt;p style=&quot;margin:0 0 0 4px;line-height:1.6;&quot;&gt;- supervisorCreateProject(Supervisor): void&lt;br/&gt;- getRequestToProcess(List&amp;lt;Request&amp;gt;): String&lt;br/&gt;- supervisorViewAllPendingRequest(Supervisor): void&lt;br/&gt;+ supervisorMainPage(User): void&lt;br/&gt;- supervisorViewAllRequestHistory(Supervisor): void&lt;br/&gt;- supervisorApproveOrRejectRequest(Supervisor): void&lt;br/&gt;- supervisorChangeProjectTitle(Supervisor): void&lt;br/&gt;- supervisorRequestForTransfer(Supervisor): void&lt;/p&gt;" style="verticalAlign=top;align=left;overflow=fill;fontSize=14;fontFamily=Helvetica;html=1;rounded=0;shadow=0;comic=0;labelBackgroundColor=none;strokeWidth=1;fillColor=#dae8fc;strokeColor=#6c8ebf;" vertex="1" parent="1">
          <mxGeometry x="290" y="-840" width="360" height="285" as="geometry" />
        </mxCell>
        <mxCell id="EDYX8qCLXJ03ERaAKR4w-10" value="&lt;p style=&quot;margin:0px;margin-top:4px;text-align:center;&quot;&gt;&lt;b&gt;ModelViewer&lt;/b&gt;&lt;/p&gt;&lt;hr size=&quot;1&quot;/&gt;&lt;p style=&quot;margin:0 0 0 4px;line-height:1.6;&quot;&gt;+ ModelViewer(): &lt;/p&gt;&lt;hr size=&quot;1&quot;/&gt;&lt;p style=&quot;margin:0 0 0 4px;line-height:1.6;&quot;&gt;+ displaySingleDisplayable(Displayable): void&lt;br/&gt;+ displayListOfDisplayable(List&amp;lt;Displayable&amp;gt;): void&lt;/p&gt;" style="verticalAlign=top;align=left;overflow=fill;fontSize=14;fontFamily=Helvetica;html=1;rounded=0;shadow=0;comic=0;labelBackgroundColor=none;strokeWidth=1;fillColor=#dae8fc;strokeColor=#6c8ebf;" vertex="1" parent="1">
          <mxGeometry x="725" y="-250" width="355" height="126" as="geometry" />
        </mxCell>
        <mxCell id="EDYX8qCLXJ03ERaAKR4w-11" value="&lt;p style=&quot;margin:0px;margin-top:4px;text-align:center;&quot;&gt;&lt;b&gt;ProjectViewer&lt;/b&gt;&lt;/p&gt;&lt;hr size=&quot;1&quot;/&gt;&lt;p style=&quot;margin:0 0 0 4px;line-height:1.6;&quot;&gt;+ ProjectViewer(): &lt;/p&gt;&lt;hr size=&quot;1&quot;/&gt;&lt;p style=&quot;margin:0 0 0 4px;line-height:1.6;&quot;&gt;+ generateDetailsByStudentID(): void&lt;br/&gt;+ viewAvailableProjectList(Student): void&lt;br/&gt;+ generateDetailsByStatus(): void&lt;br/&gt;+ viewAllProject(): void&lt;br/&gt;+ viewStudentProject(Student): void&lt;br/&gt;+ generateDetailsBySupervisorID(): void&lt;br/&gt;+ generateDetailsByProjectID(): void&lt;br/&gt;+ generateProjectDetails(): void&lt;/p&gt;&lt;hr size=&quot;1&quot;/&gt;&lt;p style=&quot;margin:0 0 0 4px;line-height:1.6;&quot;&gt; projectStatus: ProjectStatus&lt;/p&gt;" style="verticalAlign=top;align=left;overflow=fill;fontSize=14;fontFamily=Helvetica;html=1;rounded=0;shadow=0;comic=0;labelBackgroundColor=none;strokeWidth=1;fillColor=#dae8fc;strokeColor=#6c8ebf;" vertex="1" parent="1">
          <mxGeometry x="410" y="-228" width="280" height="314" as="geometry" />
        </mxCell>
        <mxCell id="EDYX8qCLXJ03ERaAKR4w-12" value="&lt;p style=&quot;margin:0px;margin-top:4px;text-align:center;&quot;&gt;&lt;b&gt;ExitPage&lt;/b&gt;&lt;/p&gt;&lt;hr size=&quot;1&quot;/&gt;&lt;p style=&quot;margin:0 0 0 4px;line-height:1.6;&quot;&gt;+ ExitPage(): &lt;/p&gt;&lt;hr size=&quot;1&quot;/&gt;&lt;p style=&quot;margin:0 0 0 4px;line-height:1.6;&quot;&gt;+ exitPage(): void&lt;/p&gt;" style="verticalAlign=top;align=left;overflow=fill;fontSize=14;fontFamily=Helvetica;html=1;rounded=0;shadow=0;comic=0;labelBackgroundColor=none;strokeWidth=1;fillColor=#dae8fc;strokeColor=#6c8ebf;" vertex="1" parent="1">
          <mxGeometry x="245.5" y="80" width="129" height="96" as="geometry" />
        </mxCell>
        <mxCell id="EDYX8qCLXJ03ERaAKR4w-13" value="&lt;p style=&quot;margin:0px;margin-top:4px;text-align:center;&quot;&gt;&lt;b&gt;Welcome&lt;/b&gt;&lt;/p&gt;&lt;hr size=&quot;1&quot;/&gt;&lt;p style=&quot;margin:0 0 0 4px;line-height:1.6;&quot;&gt;+ Welcome(): &lt;/p&gt;&lt;hr size=&quot;1&quot;/&gt;&lt;p style=&quot;margin:0 0 0 4px;line-height:1.6;&quot;&gt;+ welcome(): void&lt;/p&gt;" style="verticalAlign=top;align=left;overflow=fill;fontSize=14;fontFamily=Helvetica;html=1;rounded=0;shadow=0;comic=0;labelBackgroundColor=none;strokeWidth=1;fillColor=#dae8fc;strokeColor=#6c8ebf;" vertex="1" parent="1">
          <mxGeometry x="270" y="-1410" width="131" height="96" as="geometry" />
        </mxCell>
        <mxCell id="EDYX8qCLXJ03ERaAKR4w-14" value="&lt;p style=&quot;margin:0px;margin-top:4px;text-align:center;&quot;&gt;&lt;b&gt;UIEntry&lt;/b&gt;&lt;/p&gt;&lt;hr size=&quot;1&quot;/&gt;&lt;p style=&quot;margin:0 0 0 4px;line-height:1.6;&quot;&gt;+ UIEntry(): &lt;/p&gt;&lt;hr size=&quot;1&quot;/&gt;&lt;p style=&quot;margin:0 0 0 4px;line-height:1.6;&quot;&gt;- firstStart(): boolean&lt;br/&gt;+ start(): void&lt;/p&gt;" style="verticalAlign=top;align=left;overflow=fill;fontSize=14;fontFamily=Helvetica;html=1;rounded=0;shadow=0;comic=0;labelBackgroundColor=none;strokeWidth=1;fillColor=#dae8fc;strokeColor=#6c8ebf;" vertex="1" parent="1">
          <mxGeometry x="619" y="-1425" width="149" height="126" as="geometry" />
        </mxCell>
        <mxCell id="KJbdbC9EjLlwS4Ygw2Vj-2" value="Use" style="endArrow=open;endSize=12;dashed=1;html=1;rounded=0;exitX=0.5;exitY=1;exitDx=0;exitDy=0;entryX=0.5;entryY=0;entryDx=0;entryDy=0;" edge="1" parent="1" source="EDYX8qCLXJ03ERaAKR4w-13" target="EDYX8qCLXJ03ERaAKR4w-4">
          <mxGeometry width="160" relative="1" as="geometry">
            <mxPoint x="170" y="-1170" as="sourcePoint" />
            <mxPoint x="330" y="-1170" as="targetPoint" />
          </mxGeometry>
        </mxCell>
        <mxCell id="KJbdbC9EjLlwS4Ygw2Vj-4" value="Use" style="endArrow=open;endSize=12;dashed=1;html=1;rounded=0;exitX=0.25;exitY=1;exitDx=0;exitDy=0;entryX=0.5;entryY=0;entryDx=0;entryDy=0;edgeStyle=orthogonalEdgeStyle;" edge="1" parent="1" source="EDYX8qCLXJ03ERaAKR4w-4" target="EDYX8qCLXJ03ERaAKR4w-8">
          <mxGeometry x="0.0408" y="-10" width="160" relative="1" as="geometry">
            <mxPoint x="70" y="-1120" as="sourcePoint" />
            <mxPoint x="70" y="-962" as="targetPoint" />
            <mxPoint x="1" as="offset" />
          </mxGeometry>
        </mxCell>
        <mxCell id="EDYX8qCLXJ03ERaAKR4w-16" value="Use" style="endArrow=open;endSize=12;dashed=1;html=1;rounded=0;exitX=0.75;exitY=1;exitDx=0;exitDy=0;entryX=0.5;entryY=0;entryDx=0;entryDy=0;edgeStyle=orthogonalEdgeStyle;" edge="1" parent="1" source="EDYX8qCLXJ03ERaAKR4w-4" target="EDYX8qCLXJ03ERaAKR4w-9">
          <mxGeometry width="160" relative="1" as="geometry">
            <mxPoint x="380" y="-1040" as="sourcePoint" />
            <mxPoint x="380" y="-882" as="targetPoint" />
          </mxGeometry>
        </mxCell>
        <mxCell id="EDYX8qCLXJ03ERaAKR4w-17" value="Use" style="endArrow=open;endSize=12;dashed=1;html=1;rounded=0;exitX=1;exitY=0.75;exitDx=0;exitDy=0;edgeStyle=orthogonalEdgeStyle;entryX=0.5;entryY=0;entryDx=0;entryDy=0;" edge="1" parent="1" source="EDYX8qCLXJ03ERaAKR4w-4" target="EDYX8qCLXJ03ERaAKR4w-7">
          <mxGeometry x="-0.1452" y="-14" width="160" relative="1" as="geometry">
            <mxPoint x="391" y="-1110" as="sourcePoint" />
            <mxPoint x="860" y="-830" as="targetPoint" />
            <mxPoint as="offset" />
            <Array as="points">
              <mxPoint x="860" y="-1084" />
            </Array>
          </mxGeometry>
        </mxCell>
        <mxCell id="KJbdbC9EjLlwS4Ygw2Vj-5" value="Use" style="endArrow=open;endSize=12;dashed=1;html=1;rounded=0;exitX=0;exitY=0.5;exitDx=0;exitDy=0;entryX=0.5;entryY=0;entryDx=0;entryDy=0;edgeStyle=orthogonalEdgeStyle;" edge="1" parent="1" source="EDYX8qCLXJ03ERaAKR4w-13" target="EDYX8qCLXJ03ERaAKR4w-3">
          <mxGeometry width="160" relative="1" as="geometry">
            <mxPoint x="170" y="-1170" as="sourcePoint" />
            <mxPoint x="330" y="-1170" as="targetPoint" />
          </mxGeometry>
        </mxCell>
        <mxCell id="KJbdbC9EjLlwS4Ygw2Vj-6" value="Use" style="endArrow=open;endSize=12;dashed=1;html=1;rounded=0;exitX=0.25;exitY=0;exitDx=0;exitDy=0;entryX=1;entryY=0.5;entryDx=0;entryDy=0;edgeStyle=orthogonalEdgeStyle;" edge="1" parent="1" source="EDYX8qCLXJ03ERaAKR4w-4" target="EDYX8qCLXJ03ERaAKR4w-3">
          <mxGeometry x="0.2086" y="15" width="160" relative="1" as="geometry">
            <mxPoint x="170" y="-1030" as="sourcePoint" />
            <mxPoint x="330" y="-1030" as="targetPoint" />
            <mxPoint as="offset" />
          </mxGeometry>
        </mxCell>
        <mxCell id="KJbdbC9EjLlwS4Ygw2Vj-7" value="Use" style="endArrow=open;endSize=12;dashed=1;html=1;rounded=0;entryX=1;entryY=0.25;entryDx=0;entryDy=0;exitX=0;exitY=0.5;exitDx=0;exitDy=0;" edge="1" parent="1" source="EDYX8qCLXJ03ERaAKR4w-4" target="EDYX8qCLXJ03ERaAKR4w-1">
          <mxGeometry width="160" relative="1" as="geometry">
            <mxPoint x="170" y="-1030" as="sourcePoint" />
            <mxPoint x="330" y="-1030" as="targetPoint" />
          </mxGeometry>
        </mxCell>
        <mxCell id="EDYX8qCLXJ03ERaAKR4w-24" value="Use" style="endArrow=open;endSize=12;dashed=1;html=1;rounded=0;exitX=0.75;exitY=1;exitDx=0;exitDy=0;edgeStyle=orthogonalEdgeStyle;" edge="1" parent="1" source="EDYX8qCLXJ03ERaAKR4w-7">
          <mxGeometry x="-0.6039" y="-16" width="160" relative="1" as="geometry">
            <mxPoint x="352.00000000000006" y="-320" as="sourcePoint" />
            <mxPoint x="370" y="-420" as="targetPoint" />
            <Array as="points">
              <mxPoint x="916" y="-420" />
            </Array>
            <mxPoint as="offset" />
          </mxGeometry>
        </mxCell>
        <mxCell id="EDYX8qCLXJ03ERaAKR4w-25" value="Use" style="endArrow=open;endSize=12;dashed=1;html=1;rounded=0;exitX=0.5;exitY=1;exitDx=0;exitDy=0;" edge="1" parent="1" source="EDYX8qCLXJ03ERaAKR4w-5">
          <mxGeometry width="160" relative="1" as="geometry">
            <mxPoint x="270" as="sourcePoint" />
            <mxPoint x="310" y="80" as="targetPoint" />
          </mxGeometry>
        </mxCell>
        <mxCell id="KJbdbC9EjLlwS4Ygw2Vj-12" value="" style="ellipse;resizable=0;aspect=fixed;fillColor=strokeColor;" vertex="1" parent="1">
          <mxGeometry x="366" y="-340" width="4" height="4" as="geometry" />
        </mxCell>
        <mxCell id="KJbdbC9EjLlwS4Ygw2Vj-13" value="use" style="endArrow=open;html=1;rounded=0;align=center;verticalAlign=bottom;dashed=1;endFill=0;labelBackgroundColor=none;spacingBottom=35;exitX=0.25;exitY=1;exitDx=0;exitDy=0;edgeStyle=orthogonalEdgeStyle;" edge="1" parent="1" source="EDYX8qCLXJ03ERaAKR4w-9">
          <mxGeometry x="0.0181" y="-2" relative="1" as="geometry">
            <mxPoint x="250" y="-440" as="sourcePoint" />
            <mxPoint y="-1" as="offset" />
            <mxPoint x="368" y="-420" as="targetPoint" />
            <Array as="points">
              <mxPoint x="368" y="-555" />
            </Array>
          </mxGeometry>
        </mxCell>
        <mxCell id="KJbdbC9EjLlwS4Ygw2Vj-14" value="use" style="endArrow=open;html=1;rounded=0;align=center;verticalAlign=top;dashed=1;endFill=0;labelBackgroundColor=none;spacingTop=35;exitX=0.75;exitY=1;exitDx=0;exitDy=0;edgeStyle=orthogonalEdgeStyle;" edge="1" parent="1" source="EDYX8qCLXJ03ERaAKR4w-8">
          <mxGeometry x="-0.8735" y="12" relative="1" as="geometry">
            <mxPoint x="250" y="-360" as="sourcePoint" />
            <mxPoint y="-1" as="offset" />
            <mxPoint x="370" y="-420" as="targetPoint" />
            <Array as="points">
              <mxPoint x="146" y="-420" />
            </Array>
          </mxGeometry>
        </mxCell>
        <mxCell id="KJbdbC9EjLlwS4Ygw2Vj-15" value="" style="endArrow=open;html=1;rounded=0;align=center;verticalAlign=bottom;dashed=1;endFill=0;labelBackgroundColor=none;spacingBottom=35;entryX=0.25;entryY=0;entryDx=0;entryDy=0;edgeStyle=orthogonalEdgeStyle;" edge="1" parent="1" source="KJbdbC9EjLlwS4Ygw2Vj-12" target="EDYX8qCLXJ03ERaAKR4w-11">
          <mxGeometry relative="1" as="geometry">
            <mxPoint x="390" y="-440" as="targetPoint" />
          </mxGeometry>
        </mxCell>
        <mxCell id="KJbdbC9EjLlwS4Ygw2Vj-17" value="" style="endArrow=open;html=1;rounded=0;align=center;verticalAlign=bottom;dashed=1;endFill=0;labelBackgroundColor=none;spacingBottom=35;exitX=0.5;exitY=0;exitDx=0;exitDy=0;entryX=0.25;entryY=0;entryDx=0;entryDy=0;edgeStyle=orthogonalEdgeStyle;" edge="1" parent="1">
          <mxGeometry relative="1" as="geometry">
            <mxPoint x="802.5" y="-248" as="targetPoint" />
            <mxPoint x="368" y="-338" as="sourcePoint" />
            <Array as="points">
              <mxPoint x="803" y="-338" />
            </Array>
          </mxGeometry>
        </mxCell>
        <mxCell id="EDYX8qCLXJ03ERaAKR4w-28" value="use" style="endArrow=open;endSize=12;dashed=1;html=1;rounded=0;exitX=0;exitY=0.5;exitDx=0;exitDy=0;edgeStyle=orthogonalEdgeStyle;" edge="1" parent="1" source="KJbdbC9EjLlwS4Ygw2Vj-12">
          <mxGeometry width="160" relative="1" as="geometry">
            <mxPoint x="356" y="-336" as="sourcePoint" />
            <mxPoint x="310" y="-120" as="targetPoint" />
          </mxGeometry>
        </mxCell>
        <mxCell id="KJbdbC9EjLlwS4Ygw2Vj-19" value="" style="endArrow=open;html=1;rounded=0;align=center;verticalAlign=bottom;dashed=1;endFill=0;labelBackgroundColor=none;spacingBottom=35;entryX=0;entryY=0.5;entryDx=0;entryDy=0;edgeStyle=orthogonalEdgeStyle;" edge="1" parent="1" target="EDYX8qCLXJ03ERaAKR4w-6">
          <mxGeometry relative="1" as="geometry">
            <mxPoint x="943" y="-386.5" as="targetPoint" />
            <mxPoint x="370" y="-338" as="sourcePoint" />
            <Array as="points">
              <mxPoint x="803" y="-338" />
              <mxPoint x="803" y="-386" />
              <mxPoint x="1070" y="-386" />
            </Array>
          </mxGeometry>
        </mxCell>
        <mxCell id="EDYX8qCLXJ03ERaAKR4w-31" value="use" style="text;html=1;align=center;verticalAlign=middle;resizable=0;points=[];autosize=1;strokeColor=none;fillColor=none;" vertex="1" parent="1">
          <mxGeometry x="530" y="-320" width="40" height="30" as="geometry" />
        </mxCell>
        <mxCell id="EDYX8qCLXJ03ERaAKR4w-30" value="" style="endArrow=open;html=1;rounded=0;align=center;verticalAlign=top;dashed=1;endFill=0;labelBackgroundColor=none;spacingTop=35;edgeStyle=orthogonalEdgeStyle;" edge="1" parent="1" source="KJbdbC9EjLlwS4Ygw2Vj-12">
          <mxGeometry relative="1" as="geometry">
            <mxPoint x="120" y="-210" as="targetPoint" />
            <mxPoint x="350" y="-337" as="sourcePoint" />
          </mxGeometry>
        </mxCell>
        <mxCell id="KJbdbC9EjLlwS4Ygw2Vj-23" value="use" style="edgeLabel;html=1;align=center;verticalAlign=middle;resizable=0;points=[];" connectable="0" vertex="1" parent="EDYX8qCLXJ03ERaAKR4w-30">
          <mxGeometry x="-0.006" y="-1" relative="1" as="geometry">
            <mxPoint y="-11" as="offset" />
          </mxGeometry>
        </mxCell>
        <mxCell id="KJbdbC9EjLlwS4Ygw2Vj-20" value="Use" style="endArrow=open;endSize=12;dashed=1;html=1;rounded=0;exitX=0;exitY=0.5;exitDx=0;exitDy=0;entryX=1;entryY=0.5;entryDx=0;entryDy=0;" edge="1" parent="1" source="EDYX8qCLXJ03ERaAKR4w-14" target="EDYX8qCLXJ03ERaAKR4w-13">
          <mxGeometry width="160" relative="1" as="geometry">
            <mxPoint x="-140" y="-1430" as="sourcePoint" />
            <mxPoint x="20" y="-1430" as="targetPoint" />
          </mxGeometry>
        </mxCell>
        <mxCell id="EDYX8qCLXJ03ERaAKR4w-33" value="" style="endArrow=none;dashed=1;html=1;dashPattern=1 3;strokeWidth=2;rounded=0;exitX=0.5;exitY=0;exitDx=0;exitDy=0;" edge="1" parent="1" source="KJbdbC9EjLlwS4Ygw2Vj-12">
          <mxGeometry width="50" height="50" relative="1" as="geometry">
            <mxPoint x="320" y="-361.5" as="sourcePoint" />
            <mxPoint x="367" y="-420" as="targetPoint" />
          </mxGeometry>
        </mxCell>
      </root>
    </mxGraphModel>
  </diagram>
</mxfile>
